<mxfile host="app.diagrams.net">
  <diagram name="Activity Diagram" id="activity1">
    <mxGraphModel dx="1270" dy="677" grid="1" gridSize="10" guides="1" tooltips="1" connect="1" arrows="1" fold="1" page="1" pageScale="1" pageWidth="827" pageHeight="1169">
      <root>
        <mxCell id="0"/>
        <mxCell id="1" parent="0"/>

        <!-- Start Node -->
        <mxCell id="2" value="" style="ellipse;whiteSpace=wrap;html=1;aspect=fixed;fillColor=#000000;" vertex="1" parent="1">
          <mxGeometry x="100" y="40" width="30" height="30" as="geometry"/>
        </mxCell>

        <!-- User fills form -->
        <mxCell id="3" value="User fills registration form" style="rounded=1;whiteSpace=wrap;html=1;" vertex="1" parent="1">
          <mxGeometry x="80" y="100" width="180" height="60" as="geometry"/>
        </mxCell>

        <!-- Validate Affiliation -->
        <mxCell id="4" value="Is affiliation valid?" style="rhombus;whiteSpace=wrap;html=1;" vertex="1" parent="1">
          <mxGeometry x="110" y="180" width="120" height="60" as="geometry"/>
        </mxCell>

        <!-- Invalid affiliation -->
        <mxCell id="5" value="Show 'Bad request' message" style="rounded=1;whiteSpace=wrap;html=1;fillColor=#f8cecc;" vertex="1" parent="1">
          <mxGeometry x="300" y="180" width="180" height="60" as="geometry"/>
        </mxCell>

        <!-- Validate unique fields -->
        <mxCell id="6" value="Validate unique fields (email, username, studentId)" style="rounded=1;whiteSpace=wrap;html=1;" vertex="1" parent="1">
          <mxGeometry x="80" y="260" width="260" height="60" as="geometry"/>
        </mxCell>

        <!-- Unique fields invalid -->
        <mxCell id="7" value="Show 'Bad request' message" style="rounded=1;whiteSpace=wrap;html=1;fillColor=#f8cecc;" vertex="1" parent="1">
          <mxGeometry x="360" y="260" width="180" height="60" as="geometry"/>
        </mxCell>

        <!-- Create contestant -->
        <mxCell id="8" value="Create contestant" style="rounded=1;whiteSpace=wrap;html=1;" vertex="1" parent="1">
          <mxGeometry x="80" y="340" width="180" height="60" as="geometry"/>
        </mxCell>

        <!-- Contestant creation error -->
        <mxCell id="9" value="Show 'Error' message" style="rounded=1;whiteSpace=wrap;html=1;fillColor=#ffe6cc;" vertex="1" parent="1">
          <mxGeometry x="280" y="340" width="160" height="60" as="geometry"/>
        </mxCell>

        <!-- Success message -->
        <mxCell id="10" value="Show 'Success' message" style="rounded=1;whiteSpace=wrap;html=1;fillColor=#d5e8d4;" vertex="1" parent="1">
          <mxGeometry x="80" y="420" width="180" height="60" as="geometry"/>
        </mxCell>

        <!-- End Node -->
        <mxCell id="11" value="" style="ellipse;whiteSpace=wrap;html=1;aspect=fixed;fillColor=#000000;" vertex="1" parent="1">
          <mxGeometry x="130" y="500" width="30" height="30" as="geometry"/>
        </mxCell>

        <!-- Edges -->
        <mxCell id="12" style="edgeStyle=orthogonalEdgeStyle;rounded=0;" edge="1" parent="1" source="2" target="3"><mxGeometry relative="1" as="geometry"/></mxCell>
        <mxCell id="13" style="edgeStyle=orthogonalEdgeStyle;rounded=0;" edge="1" parent="1" source="3" target="4"><mxGeometry relative="1" as="geometry"/></mxCell>
        <mxCell id="14" style="edgeStyle=orthogonalEdgeStyle;rounded=0;" edge="1" parent="1" source="4" target="5"><mxGeometry relative="1" as="geometry"><mxPoint x="240" y="210" as="targetPoint"/></mxGeometry></mxCell>
        <mxCell id="15" style="edgeStyle=orthogonalEdgeStyle;rounded=0;" edge="1" parent="1" source="4" target="6"><mxGeometry relative="1" as="geometry"/></mxCell>
        <mxCell id="16" style="edgeStyle=orthogonalEdgeStyle;rounded=0;" edge="1" parent="1" source="6" target="7"><mxGeometry relative="1" as="geometry"><mxPoint x="320" y="290" as="targetPoint"/></mxGeometry></mxCell>
        <mxCell id="17" style="edgeStyle=orthogonalEdgeStyle;rounded=0;" edge="1" parent="1" source="6" target="8"><mxGeometry relative="1" as="geometry"/></mxCell>
        <mxCell id="18" style="edgeStyle=orthogonalEdgeStyle;rounded=0;" edge="1" parent="1" source="8" target="9"><mxGeometry relative="1" as="geometry"><mxPoint x="240" y="370" as="targetPoint"/></mxGeometry></mxCell>
        <mxCell id="19" style="edgeStyle=orthogonalEdgeStyle;rounded=0;" edge="1" parent="1" source="8" target="10"><mxGeometry relative="1" as="geometry"/></mxCell>
        <mxCell id="20" style="edgeStyle=orthogonalEdgeStyle;rounded=0;" edge="1" parent="1" source="10" target="11"><mxGeometry relative="1" as="geometry"/></mxCell>

      </root>
    </mxGraphModel>
  </diagram>
</mxfile>
